<svg xmlns="http://www.w3.org/2000/svg" width="21.618" height="23.779" viewBox="0 0 21.618 23.779">
  <g id="Group_5751" data-name="Group 5751" transform="translate(11824.728 -4762)">
    <path id="Path_6692" data-name="Path 6692" d="M12.809,20.456a1.081,1.081,0,1,0-1.081-1.081A1.081,1.081,0,0,0,12.809,20.456Zm5.4,0a1.081,1.081,0,1,0-1.081-1.081,1.081,1.081,0,0,0,1.081,1.081Zm0-4.324a1.081,1.081,0,1,0-1.081-1.081,1.081,1.081,0,0,0,1.081,1.081Zm-5.4,0a1.081,1.081,0,1,0-1.081-1.081A1.081,1.081,0,0,0,12.809,16.132ZM20.376,3.159H19.295V2.081a1.081,1.081,0,0,0-2.161,0V3.161H8.485V2.081a1.081,1.081,0,0,0-2.161,0V3.161H5.242A3.242,3.242,0,0,0,2,6.4V21.537a3.242,3.242,0,0,0,3.242,3.242H20.376a3.242,3.242,0,0,0,3.242-3.242V6.4a3.242,3.242,0,0,0-3.242-3.243Zm1.081,18.376a1.081,1.081,0,0,1-1.081,1.081H5.242a1.081,1.081,0,0,1-1.081-1.081V11.809H21.456Zm0-11.89H4.161V6.4A1.081,1.081,0,0,1,5.242,5.324H6.323V6.4a1.081,1.081,0,0,0,2.161,0V5.324h8.647V6.4a1.081,1.081,0,0,0,2.161,0V5.324h1.081A1.081,1.081,0,0,1,21.454,6.4ZM7.4,16.132a1.081,1.081,0,1,0-1.081-1.081A1.081,1.081,0,0,0,7.4,16.132Zm0,4.324a1.081,1.081,0,1,0-1.081-1.081A1.081,1.081,0,0,0,7.4,20.456Z" transform="translate(-11826.728 4761)" fill="#545454"/>
  </g>
</svg>
