<?xml version="1.0" encoding="utf-8"?>
<!-- Generator: Adobe Illustrator 16.0.0, SVG Export Plug-In . SVG Version: 6.00 Build 0)  -->
<!DOCTYPE svg PUBLIC "-//W3C//DTD SVG 1.1//EN" "http://www.w3.org/Graphics/SVG/1.1/DTD/svg11.dtd">
<svg version="1.1" id="Layer_1" xmlns="http://www.w3.org/2000/svg" xmlns:xlink="http://www.w3.org/1999/xlink" x="0px" y="0px"
	 width="24px" height="24px" viewBox="0 0 24 24" enable-background="new 0 0 24 24" xml:space="preserve">
<path id="Path_6693" fill="#545454" d="M5.129,0.222v6.871H3.167C1.543,7.101,0.23,8.415,0.222,10.038v9.815h4.907v3.925h13.74
	v-3.926h4.908v-9.814c-0.008-1.623-1.321-2.937-2.944-2.944h-1.962V0.222H5.129z M7.093,2.185h9.815v4.909H7.093V2.185z
	 M3.167,9.056h17.666c0.532-0.01,0.972,0.414,0.982,0.946c0,0.012,0,0.024,0,0.036v7.851h-2.944v-3.926H5.129v3.926H2.185v-7.851
	c-0.01-0.533,0.414-0.972,0.946-0.982C3.143,9.056,3.154,9.056,3.167,9.056z M4.149,10.038c-0.542,0-0.982,0.44-0.982,0.982
	s0.439,0.982,0.982,0.982c0.542,0,0.982-0.44,0.982-0.982l0,0C5.129,10.478,4.691,10.039,4.149,10.038z M7.093,15.927h9.815v5.889
	H7.093V15.927z"/>
</svg>
