<svg xmlns="http://www.w3.org/2000/svg" width="24" height="24" viewBox="0 0 24 24">
    <g id="Group_4428" data-name="Group 4428" transform="translate(10979 -4712)">
      <rect id="Rectangle_2094" data-name="Rectangle 2094" width="24" height="24" transform="translate(-10979 4712)" fill="none" opacity="0"></rect>
      <path id="Path_5220" data-name="Path 5220" d="M12,2.577A9.423,9.423,0,1,0,21.423,12,9.433,9.433,0,0,0,12,2.577Zm0,17.042A7.619,7.619,0,1,1,19.619,12,7.628,7.628,0,0,1,12,19.619Z" transform="translate(-10979 4712)" fill="#545454"></path>
      <path id="Path_5221" data-name="Path 5221" d="M12.142,7.232a.9.9,0,0,0-.629-.287h-.024a.915.915,0,0,0-.908.929v4.7a.9.9,0,0,0,.9.9H15.2a.911.911,0,0,0,.9-.872.9.9,0,0,0-.749-.911l-2.969-.033V7.883A.9.9,0,0,0,12.142,7.232Z" transform="translate(-10979 4712)" fill="#545454"></path>
    </g>
</svg>