<svg xmlns="http://www.w3.org/2000/svg" width="28" height="28" viewBox="0 0 22 22">
  <g id="Group_4425" data-name="Group 4425" transform="translate(10894 -4685)">
      <rect id="Rectangle_2094" data-name="Rectangle 2094" width="28" height="28" transform="translate(-10894 4685)" fill="none" opacity="0"></rect>
      <path id="Path_5216" data-name="Path 5216" d="M47.1,16.1l-1.171-1.17V10.388c0-2.786-1.488-5.118-4.084-5.735V4.036a1.361,1.361,0,0,0-2.722,0v.617c-2.6.617-4.084,2.94-4.084,5.735v4.538L33.864,16.1a.908.908,0,0,0,.636,1.552H46.451A.908.908,0,0,0,47.1,16.1Zm-2.986-.263H36.85V10.388c0-2.25,1.37-4.087,3.63-4.087s3.63,1.833,3.63,4.083Zm-3.63,4.538a1.821,1.821,0,0,0,1.815-1.815h-3.63A1.817,1.817,0,0,0,40.48,20.371Z" transform="translate(-10922.597 4685.325)" fill="#545454"></path>
      <g id="Ellipse_28" data-name="Ellipse 28" transform="translate(1630 19)" fill="#f1375a" stroke="#fff" stroke-width="2" style="fill:#f1375a !important">
        <circle cx="4" cy="4" r="4" stroke="none" style="fill:#f1375a !important"></circle>
        <circle cx="4" cy="4" r="3" fill="none" style="fill:#f1375a !important"></circle>
      </g>
  </g>
</svg>