<svg xmlns="http://www.w3.org/2000/svg" width="24" height="24" viewBox="0 0 24 24">
<g id="Group_4424" data-name="Group 4424" transform="translate(10922 -4685)">
<rect id="Rectangle_2094" data-name="Rectangle 2094" width="24" height="24" transform="translate(-10922 4685)" fill="none" opacity="0"></rect>
<path id="Path_5219" data-name="Path 5219" d="M-15.382,10.935h-6.172V4.765A1.065,1.065,0,0,0-22.618,3.7a1.065,1.065,0,0,0-1.064,1.064v6.17h-6.174a1.058,1.058,0,0,0-.751.317,1.056,1.056,0,0,0-.305.756,1.068,1.068,0,0,0,1.058,1.055h6.172v6.169a1.059,1.059,0,0,0,.311.754,1.021,1.021,0,0,0,.755.313,1.055,1.055,0,0,0,.749-.309,1.059,1.059,0,0,0,.313-.756V13.063h6.175a1.066,1.066,0,0,0,1.057-1.072A1.069,1.069,0,0,0-15.382,10.935Z" transform="translate(-10887.383 4685)" fill="#545454"></path>
</g>
</svg>