<svg xmlns="http://www.w3.org/2000/svg" xmlns:xlink="http://www.w3.org/1999/xlink" width="20" height="20" viewBox="0 0 20 20">
<defs>
<linearGradient id="linear-gradient" x1="0.5" y1="1.077" x2="0.5" gradientUnits="objectBoundingBox">
<stop offset="0" stop-color="#fd8800"></stop>
<stop offset="1" stop-color="#fec400"></stop>
</linearGradient>
<linearGradient id="linear-gradient-2" x1="0.5" y1="1" x2="0.5" gradientUnits="objectBoundingBox">
<stop offset="0" stop-color="#ffe59a"></stop>
<stop offset="1" stop-color="#ffffd5"></stop>
</linearGradient>
</defs>
<g id="Group_4832" data-name="Group 4832" transform="translate(6313.593 292.593)">
<g id="Group_4635" data-name="Group 4635" transform="translate(-6313.593 -292.593)">
<g id="Group_4634" data-name="Group 4634" transform="translate(0 0)">
<circle id="Ellipse_183" data-name="Ellipse 183" cx="10" cy="10" r="10" fill="url(#linear-gradient)"></circle>
</g>
</g>
<g id="star" transform="translate(-6310.039 -289.039)">
<path id="Path_4779" data-name="Path 4779" d="M7.018.15,8.581,3.631l3.8.391a.634.634,0,0,1,.355,1.1L9.9,7.716l.781,3.73a.62.62,0,0,1-.924.675L6.414,10.2l-3.3,1.918a.62.62,0,0,1-.924-.675l.781-3.73L.127,5.123a.634.634,0,0,1,.355-1.1l3.8-.391L5.846.15A.63.63,0,0,1,7.018.15Z" transform="translate(0.089 0.25)" fill-rule="evenodd" fill="url(#linear-gradient-2)"></path>
</g>
</g>
</svg>