<svg xmlns="http://www.w3.org/2000/svg" width="516.175" height="504.704" viewBox="0 0 516.175 504.704">
  <g id="noun_analytic_1252753" transform="translate(-39.147 -6)">
    <g id="Group_4" data-name="Group 4" transform="translate(39.147 6)">
      <path id="Path_5" data-name="Path 5" d="M16.471,958.363A11.47,11.47,0,0,0,5,969.833V1451.6a11.47,11.47,0,0,0,11.471,11.47H509.7a11.47,11.47,0,1,0,0-22.941H27.941V969.833A11.47,11.47,0,0,0,16.471,958.363ZM395,1130.421v252.352h45.882V1130.421Zm-206.47,34.411v217.941h45.882V1164.832Zm103.235,34.412v183.529h45.882V1199.244Zm-206.47,34.412v149.117h45.882V1233.656Z" transform="translate(-5 -958.363)" fill="#ccc"/>
    </g>
  </g>
</svg>
